<svg xmlns="http://www.w3.org/2000/svg" xmlns:xlink="http://www.w3.org/1999/xlink" width="500" zoomAndPan="magnify" viewBox="0 0 375 374.999991" height="500" preserveAspectRatio="xMidYMid meet" version="1.0"><defs><clipPath id="b60196d5cd"><path d="M 112.5 112.5 L 262.5 112.5 L 262.5 262.5 L 112.5 262.5 Z M 112.5 112.5 " clip-rule="nonzero"/></clipPath></defs><g clip-path="url(#b60196d5cd)"><path fill="#000000" d="M 187.5 262.5 C 186.273438 262.5 185.046875 262.46875 183.820312 262.410156 C 182.59375 262.347656 181.371094 262.257812 180.148438 262.140625 C 178.925781 262.019531 177.710938 261.867188 176.496094 261.6875 C 175.28125 261.507812 174.070312 261.296875 172.867188 261.058594 C 171.664062 260.820312 170.46875 260.550781 169.277344 260.253906 C 168.085938 259.953125 166.902344 259.625 165.730469 259.269531 C 164.554688 258.914062 163.390625 258.53125 162.234375 258.117188 C 161.078125 257.703125 159.933594 257.261719 158.796875 256.789062 C 157.664062 256.320312 156.542969 255.824219 155.433594 255.300781 C 154.324219 254.773438 153.226562 254.222656 152.144531 253.644531 C 151.0625 253.066406 149.996094 252.460938 148.941406 251.828125 C 147.890625 251.199219 146.851562 250.542969 145.832031 249.859375 C 144.8125 249.179688 143.808594 248.472656 142.824219 247.742188 C 141.835938 247.007812 140.871094 246.253906 139.921875 245.476562 C 138.972656 244.695312 138.042969 243.894531 137.132812 243.070312 C 136.222656 242.246094 135.335938 241.402344 134.46875 240.53125 C 133.597656 239.664062 132.753906 238.777344 131.929688 237.867188 C 131.105469 236.957031 130.304688 236.027344 129.523438 235.078125 C 128.746094 234.128906 127.992188 233.164062 127.257812 232.175781 C 126.527344 231.191406 125.820312 230.1875 125.140625 229.167969 C 124.457031 228.148438 123.800781 227.109375 123.171875 226.058594 C 122.539062 225.003906 121.933594 223.9375 121.355469 222.855469 C 120.777344 221.773438 120.226562 220.675781 119.699219 219.566406 C 119.175781 218.457031 118.679688 217.335938 118.210938 216.203125 C 117.738281 215.066406 117.296875 213.921875 116.882812 212.765625 C 116.46875 211.609375 116.085938 210.445312 115.730469 209.269531 C 115.375 208.097656 115.046875 206.914062 114.746094 205.722656 C 114.449219 204.53125 114.179688 203.335938 113.941406 202.132812 C 113.703125 200.929688 113.492188 199.71875 113.3125 198.503906 C 113.132812 197.289062 112.980469 196.074219 112.859375 194.851562 C 112.742188 193.628906 112.652344 192.40625 112.589844 191.179688 C 112.53125 189.953125 112.5 188.726562 112.5 187.5 C 112.5 186.273438 112.53125 185.046875 112.589844 183.820312 C 112.652344 182.59375 112.742188 181.371094 112.859375 180.148438 C 112.980469 178.925781 113.132812 177.710938 113.3125 176.496094 C 113.492188 175.28125 113.703125 174.070312 113.941406 172.867188 C 114.179688 171.664062 114.449219 170.46875 114.746094 169.277344 C 115.046875 168.085938 115.375 166.902344 115.730469 165.730469 C 116.085938 164.554688 116.46875 163.390625 116.882812 162.234375 C 117.296875 161.078125 117.738281 159.933594 118.210938 158.796875 C 118.679688 157.664062 119.175781 156.542969 119.699219 155.433594 C 120.226562 154.324219 120.777344 153.226562 121.355469 152.144531 C 121.933594 151.0625 122.539062 149.996094 123.171875 148.941406 C 123.800781 147.890625 124.457031 146.851562 125.140625 145.832031 C 125.820312 144.8125 126.527344 143.808594 127.257812 142.824219 C 127.992188 141.835938 128.746094 140.871094 129.523438 139.921875 C 130.304688 138.972656 131.105469 138.042969 131.929688 137.132812 C 132.753906 136.222656 133.597656 135.335938 134.46875 134.46875 C 135.335938 133.597656 136.222656 132.753906 137.132812 131.929688 C 138.042969 131.105469 138.972656 130.304688 139.921875 129.523438 C 140.871094 128.746094 141.835938 127.992188 142.824219 127.257812 C 143.808594 126.527344 144.8125 125.820312 145.832031 125.140625 C 146.851562 124.457031 147.890625 123.800781 148.941406 123.171875 C 149.996094 122.539062 151.0625 121.933594 152.144531 121.355469 C 153.226562 120.777344 154.324219 120.226562 155.433594 119.699219 C 156.542969 119.175781 157.664062 118.679688 158.796875 118.210938 C 159.933594 117.738281 161.078125 117.296875 162.234375 116.882812 C 163.390625 116.46875 164.554688 116.085938 165.730469 115.730469 C 166.902344 115.375 168.085938 115.046875 169.277344 114.746094 C 170.46875 114.449219 171.664062 114.179688 172.867188 113.941406 C 174.070312 113.703125 175.28125 113.492188 176.496094 113.3125 C 177.710938 113.132812 178.925781 112.980469 180.148438 112.859375 C 181.371094 112.742188 182.59375 112.652344 183.820312 112.589844 C 185.046875 112.53125 186.273438 112.5 187.5 112.5 C 188.726562 112.5 189.953125 112.53125 191.179688 112.589844 C 192.40625 112.652344 193.628906 112.742188 194.851562 112.859375 C 196.074219 112.980469 197.289062 113.132812 198.503906 113.3125 C 199.71875 113.492188 200.929688 113.703125 202.132812 113.941406 C 203.335938 114.179688 204.53125 114.449219 205.722656 114.746094 C 206.914062 115.046875 208.097656 115.375 209.269531 115.730469 C 210.445312 116.085938 211.609375 116.46875 212.765625 116.882812 C 213.921875 117.296875 215.066406 117.738281 216.203125 118.210938 C 217.335938 118.679688 218.457031 119.175781 219.566406 119.699219 C 220.675781 120.226562 221.773438 120.777344 222.855469 121.355469 C 223.9375 121.933594 225.003906 122.539062 226.058594 123.171875 C 227.109375 123.800781 228.148438 124.457031 229.167969 125.140625 C 230.1875 125.820312 231.191406 126.527344 232.175781 127.257812 C 233.164062 127.992188 234.128906 128.746094 235.078125 129.523438 C 236.027344 130.304688 236.957031 131.105469 237.867188 131.929688 C 238.777344 132.753906 239.664062 133.597656 240.53125 134.46875 C 241.402344 135.335938 242.246094 136.222656 243.070312 137.132812 C 243.894531 138.042969 244.695312 138.972656 245.476562 139.921875 C 246.253906 140.871094 247.007812 141.835938 247.742188 142.824219 C 248.472656 143.808594 249.179688 144.8125 249.859375 145.832031 C 250.542969 146.851562 251.199219 147.890625 251.828125 148.941406 C 252.460938 149.996094 253.066406 151.0625 253.644531 152.144531 C 254.222656 153.226562 254.773438 154.324219 255.300781 155.433594 C 255.824219 156.542969 256.320312 157.664062 256.789062 158.796875 C 257.261719 159.933594 257.703125 161.078125 258.117188 162.234375 C 258.53125 163.390625 258.914062 164.554688 259.269531 165.730469 C 259.625 166.902344 259.953125 168.085938 260.253906 169.277344 C 260.550781 170.46875 260.820312 171.664062 261.058594 172.867188 C 261.296875 174.070312 261.507812 175.28125 261.6875 176.496094 C 261.867188 177.710938 262.019531 178.925781 262.140625 180.148438 C 262.257812 181.371094 262.347656 182.59375 262.410156 183.820312 C 262.46875 185.046875 262.5 186.273438 262.5 187.5 C 262.5 188.726562 262.46875 189.953125 262.40625 191.179688 C 262.34375 192.40625 262.253906 193.628906 262.132812 194.847656 C 262.007812 196.070312 261.859375 197.285156 261.675781 198.5 C 261.496094 199.714844 261.285156 200.921875 261.042969 202.125 C 260.804688 203.328125 260.535156 204.527344 260.234375 205.714844 C 259.9375 206.90625 259.609375 208.085938 259.25 209.261719 C 258.894531 210.4375 258.507812 211.601562 258.09375 212.753906 C 257.679688 213.910156 257.238281 215.054688 256.769531 216.1875 C 256.296875 217.320312 255.800781 218.441406 255.273438 219.550781 C 254.75 220.660156 254.199219 221.753906 253.617188 222.835938 C 253.039062 223.917969 252.433594 224.988281 251.804688 226.039062 C 251.171875 227.089844 250.515625 228.128906 249.832031 229.148438 C 249.152344 230.167969 248.445312 231.171875 247.714844 232.15625 C 246.984375 233.140625 246.226562 234.109375 245.449219 235.054688 C 244.671875 236.003906 243.871094 236.933594 243.046875 237.84375 C 242.222656 238.75 241.375 239.640625 240.507812 240.507812 C 239.640625 241.375 238.75 242.222656 237.84375 243.046875 C 236.933594 243.871094 236.003906 244.671875 235.054688 245.449219 C 234.109375 246.226562 233.140625 246.984375 232.15625 247.714844 C 231.171875 248.445312 230.167969 249.152344 229.148438 249.832031 C 228.128906 250.515625 227.089844 251.171875 226.039062 251.804688 C 224.988281 252.433594 223.917969 253.039062 222.835938 253.617188 C 221.753906 254.199219 220.660156 254.75 219.550781 255.273438 C 218.441406 255.800781 217.320312 256.296875 216.1875 256.769531 C 215.054688 257.238281 213.910156 257.679688 212.753906 258.09375 C 211.601562 258.507812 210.4375 258.894531 209.261719 259.25 C 208.085938 259.609375 206.90625 259.9375 205.714844 260.234375 C 204.527344 260.535156 203.328125 260.804688 202.125 261.042969 C 200.921875 261.285156 199.714844 261.496094 198.5 261.675781 C 197.285156 261.859375 196.070312 262.007812 194.847656 262.132812 C 193.628906 262.253906 192.40625 262.34375 191.179688 262.40625 C 189.953125 262.46875 188.726562 262.5 187.5 262.5 Z M 187.5 127.5 C 185.535156 127.5 183.574219 127.597656 181.617188 127.789062 C 179.664062 127.980469 177.722656 128.269531 175.792969 128.652344 C 173.867188 129.035156 171.964844 129.511719 170.082031 130.082031 C 168.203125 130.652344 166.355469 131.316406 164.539062 132.066406 C 162.722656 132.820312 160.949219 133.660156 159.214844 134.585938 C 157.484375 135.511719 155.800781 136.519531 154.164062 137.613281 C 152.53125 138.703125 150.957031 139.871094 149.4375 141.121094 C 147.917969 142.367188 146.464844 143.683594 145.074219 145.074219 C 143.683594 146.464844 142.367188 147.917969 141.121094 149.4375 C 139.871094 150.957031 138.703125 152.53125 137.613281 154.164062 C 136.519531 155.800781 135.511719 157.484375 134.585938 159.214844 C 133.660156 160.949219 132.820312 162.722656 132.066406 164.539062 C 131.316406 166.355469 130.652344 168.203125 130.082031 170.082031 C 129.511719 171.964844 129.035156 173.867188 128.652344 175.792969 C 128.269531 177.722656 127.980469 179.664062 127.789062 181.617188 C 127.597656 183.574219 127.5 185.535156 127.5 187.5 C 127.5 189.464844 127.597656 191.425781 127.789062 193.382812 C 127.980469 195.335938 128.269531 197.277344 128.652344 199.207031 C 129.035156 201.132812 129.511719 203.035156 130.082031 204.917969 C 130.652344 206.796875 131.316406 208.644531 132.066406 210.460938 C 132.820312 212.277344 133.660156 214.050781 134.585938 215.785156 C 135.511719 217.515625 136.519531 219.199219 137.613281 220.835938 C 138.703125 222.46875 139.871094 224.042969 141.121094 225.5625 C 142.367188 227.082031 143.683594 228.535156 145.074219 229.925781 C 146.464844 231.316406 147.917969 232.632812 149.4375 233.878906 C 150.957031 235.128906 152.53125 236.296875 154.164062 237.386719 C 155.800781 238.480469 157.484375 239.488281 159.214844 240.414062 C 160.949219 241.339844 162.722656 242.179688 164.539062 242.933594 C 166.355469 243.683594 168.203125 244.347656 170.082031 244.917969 C 171.964844 245.488281 173.867188 245.964844 175.792969 246.347656 C 177.722656 246.730469 179.664062 247.019531 181.617188 247.210938 C 183.574219 247.402344 185.535156 247.5 187.5 247.5 C 189.464844 247.5 191.425781 247.402344 193.382812 247.210938 C 195.335938 247.019531 197.277344 246.730469 199.207031 246.347656 C 201.132812 245.964844 203.035156 245.488281 204.917969 244.917969 C 206.796875 244.347656 208.644531 243.683594 210.460938 242.933594 C 212.277344 242.179688 214.050781 241.339844 215.785156 240.414062 C 217.515625 239.488281 219.199219 238.480469 220.835938 237.386719 C 222.46875 236.296875 224.042969 235.128906 225.5625 233.878906 C 227.082031 232.632812 228.535156 231.316406 229.925781 229.925781 C 231.316406 228.535156 232.632812 227.082031 233.878906 225.5625 C 235.128906 224.042969 236.296875 222.46875 237.386719 220.835938 C 238.480469 219.199219 239.488281 217.515625 240.414062 215.785156 C 241.339844 214.050781 242.179688 212.277344 242.933594 210.460938 C 243.683594 208.644531 244.347656 206.796875 244.917969 204.917969 C 245.488281 203.035156 245.964844 201.132812 246.347656 199.207031 C 246.730469 197.277344 247.019531 195.335938 247.210938 193.382812 C 247.402344 191.425781 247.5 189.464844 247.5 187.5 C 247.496094 185.535156 247.398438 183.574219 247.203125 181.621094 C 247.011719 179.667969 246.71875 177.726562 246.335938 175.800781 C 245.949219 173.875 245.472656 171.96875 244.902344 170.089844 C 244.328125 168.210938 243.667969 166.363281 242.914062 164.550781 C 242.160156 162.734375 241.320312 160.960938 240.394531 159.230469 C 239.46875 157.5 238.457031 155.816406 237.367188 154.183594 C 236.273438 152.550781 235.105469 150.972656 233.859375 149.457031 C 232.613281 147.9375 231.292969 146.484375 229.90625 145.09375 C 228.515625 143.707031 227.0625 142.386719 225.542969 141.140625 C 224.027344 139.894531 222.449219 138.726562 220.816406 137.632812 C 219.183594 136.542969 217.5 135.53125 215.769531 134.605469 C 214.039062 133.679688 212.265625 132.839844 210.449219 132.085938 C 208.636719 131.332031 206.789062 130.671875 204.910156 130.097656 C 203.03125 129.527344 201.125 129.050781 199.199219 128.664062 C 197.273438 128.28125 195.332031 127.988281 193.378906 127.796875 C 191.425781 127.601562 189.464844 127.503906 187.5 127.5 Z M 187.5 127.5 " fill-opacity="1" fill-rule="nonzero"/></g><path fill="#000000" d="M 170.90625 232.5 C 167.121094 232.472656 163.574219 231.546875 160.261719 229.722656 C 159.21875 229.15625 158.269531 228.46875 157.410156 227.660156 C 156.546875 226.847656 155.804688 225.941406 155.179688 224.9375 C 154.558594 223.933594 154.070312 222.863281 153.722656 221.734375 C 153.378906 220.601562 153.179688 219.445312 153.136719 218.265625 C 153.152344 216.347656 153.394531 214.457031 153.863281 212.597656 C 154.332031 210.738281 155.011719 208.957031 155.90625 207.261719 C 156.800781 205.5625 157.882812 203.996094 159.152344 202.554688 C 160.421875 201.117188 161.839844 199.847656 163.414062 198.75 C 160.988281 197.105469 158.707031 195.277344 156.570312 193.273438 C 146.542969 183.429688 148.960938 167.082031 157.511719 157.984375 C 167.457031 147.425781 180 142.5 197.003906 142.5 C 206.792969 142.5 225 142.5 225 160.261719 C 225 173.484375 213.703125 176.636719 201.75 179.972656 C 198.21875 180.960938 194.214844 182.078125 189.886719 183.527344 C 189.414062 183.695312 188.933594 183.816406 188.441406 183.886719 C 187.949219 183.957031 187.453125 183.980469 186.957031 183.953125 C 186.457031 183.925781 185.96875 183.847656 185.488281 183.722656 C 185.003906 183.597656 184.539062 183.429688 184.089844 183.210938 C 183.644531 182.992188 183.21875 182.734375 182.824219 182.429688 C 182.429688 182.128906 182.066406 181.792969 181.734375 181.417969 C 181.40625 181.042969 181.117188 180.640625 180.871094 180.207031 C 180.621094 179.777344 180.417969 179.324219 180.257812 178.851562 C 180.101562 178.378906 179.988281 177.898438 179.925781 177.402344 C 179.863281 176.910156 179.851562 176.414062 179.886719 175.917969 C 179.925781 175.417969 180.007812 174.929688 180.144531 174.453125 C 180.277344 173.972656 180.457031 173.507812 180.683594 173.066406 C 180.90625 172.621094 181.175781 172.203125 181.484375 171.8125 C 181.792969 171.421875 182.136719 171.066406 182.515625 170.742188 C 182.898438 170.421875 183.304688 170.140625 183.742188 169.898438 C 184.175781 169.65625 184.632812 169.460938 185.109375 169.3125 C 189.804688 167.734375 194.011719 166.558594 197.71875 165.527344 C 202.515625 164.1875 209.089844 162.351562 209.929688 161 C 210 160.753906 210.027344 160.503906 210.011719 160.25 C 210.046875 159.785156 209.984375 159.332031 209.824219 158.894531 C 208.550781 157.5 200.753906 157.5 197.003906 157.5 C 184.078125 157.5 175.539062 160.714844 168.433594 168.25 C 164.503906 172.429688 163.84375 179.390625 167.082031 182.5625 C 169.152344 184.40625 171.351562 186.089844 173.671875 187.613281 C 175.546875 188.921875 177.632812 190.382812 179.707031 192.046875 C 181.695312 191.691406 183.699219 191.511719 185.722656 191.503906 C 187.742188 191.496094 189.746094 191.660156 191.738281 192 C 193.730469 192.339844 195.675781 192.84375 197.582031 193.519531 C 199.484375 194.195312 201.316406 195.027344 203.078125 196.019531 C 204.46875 196.800781 205.746094 197.738281 206.90625 198.832031 C 208.070312 199.925781 209.082031 201.144531 209.941406 202.488281 C 210.804688 203.832031 211.488281 205.257812 212 206.769531 C 212.511719 208.28125 212.828125 209.835938 212.957031 211.425781 C 213.058594 212.703125 213.003906 213.972656 212.789062 215.234375 C 212.578125 216.496094 212.21875 217.714844 211.707031 218.890625 C 211.195312 220.0625 210.546875 221.15625 209.765625 222.171875 C 208.984375 223.1875 208.09375 224.09375 207.089844 224.886719 C 206.699219 225.160156 206.285156 225.390625 205.847656 225.585938 C 205.410156 225.777344 204.960938 225.929688 204.492188 226.035156 C 204.027344 226.140625 203.558594 226.203125 203.082031 226.222656 C 202.601562 226.238281 202.128906 226.210938 201.65625 226.136719 C 201.183594 226.0625 200.726562 225.945312 200.277344 225.785156 C 199.828125 225.621094 199.398438 225.417969 198.984375 225.175781 C 198.574219 224.933594 198.191406 224.652344 197.835938 224.335938 C 197.476562 224.019531 197.152344 223.667969 196.863281 223.292969 C 196.574219 222.914062 196.320312 222.507812 196.105469 222.082031 C 195.894531 221.65625 195.722656 221.210938 195.59375 220.753906 C 195.464844 220.292969 195.378906 219.824219 195.339844 219.351562 C 195.300781 218.875 195.304688 218.398438 195.355469 217.925781 C 195.40625 217.449219 195.503906 216.984375 195.644531 216.527344 C 195.785156 216.070312 195.964844 215.632812 196.1875 215.210938 C 196.414062 214.789062 196.675781 214.390625 196.972656 214.019531 C 197.273438 213.648438 197.605469 213.308594 197.96875 213 C 198.011719 212.621094 197.992188 212.246094 197.910156 211.875 C 197.722656 211.242188 197.417969 210.675781 196.996094 210.171875 C 196.574219 209.667969 196.066406 209.265625 195.480469 208.972656 C 193.972656 208.101562 192.367188 207.476562 190.664062 207.097656 C 191.332031 209.898438 191.386719 212.710938 190.828125 215.535156 C 190.550781 217.148438 190.09375 218.707031 189.445312 220.210938 C 188.800781 221.714844 187.988281 223.121094 187.003906 224.429688 C 186.023438 225.738281 184.902344 226.914062 183.640625 227.957031 C 182.378906 229 181.015625 229.878906 179.542969 230.59375 C 176.808594 231.882812 173.929688 232.515625 170.90625 232.5 Z M 168.125 216.882812 C 168.902344 217.269531 169.726562 217.472656 170.59375 217.496094 C 171.464844 217.519531 172.296875 217.359375 173.097656 217.015625 C 173.917969 216.585938 174.589844 215.992188 175.121094 215.234375 C 175.652344 214.476562 175.976562 213.636719 176.097656 212.71875 C 176.328125 211.363281 176.078125 210.101562 175.347656 208.933594 C 174.480469 209.359375 173.652344 209.847656 172.859375 210.402344 C 171.695312 211.152344 170.707031 212.089844 169.890625 213.210938 C 169.074219 214.328125 168.484375 215.558594 168.125 216.894531 Z M 168.125 216.882812 " fill-opacity="1" fill-rule="nonzero"/></svg>