<svg xmlns="http://www.w3.org/2000/svg" xmlns:xlink="http://www.w3.org/1999/xlink" width="500" zoomAndPan="magnify" viewBox="0 0 375 374.999991" height="500" preserveAspectRatio="xMidYMid meet" version="1.0"><defs><clipPath id="6e303d29da"><path d="M 114.546875 112.5 L 260.796875 112.5 L 260.796875 262.5 L 114.546875 262.5 Z M 114.546875 112.5 " clip-rule="nonzero"/></clipPath></defs><g clip-path="url(#6e303d29da)"><path fill="#000000" d="M 187.871094 262.269531 C 186.996094 262.273438 186.144531 262.136719 185.3125 261.863281 L 136.699219 245.699219 C 135.980469 245.460938 135.308594 245.128906 134.6875 244.703125 C 134.0625 244.277344 133.507812 243.773438 133.027344 243.195312 C 132.542969 242.613281 132.148438 241.980469 131.84375 241.289062 C 131.539062 240.597656 131.335938 239.882812 131.234375 239.132812 L 115.027344 121.929688 C 114.949219 121.359375 114.929688 120.785156 114.972656 120.207031 C 115.015625 119.632812 115.121094 119.066406 115.285156 118.511719 C 115.449219 117.957031 115.671875 117.429688 115.953125 116.921875 C 116.230469 116.414062 116.558594 115.945312 116.941406 115.507812 C 117.320312 115.074219 117.742188 114.683594 118.207031 114.335938 C 118.671875 113.992188 119.167969 113.699219 119.695312 113.457031 C 120.222656 113.21875 120.769531 113.039062 121.335938 112.914062 C 121.902344 112.792969 122.472656 112.730469 123.054688 112.730469 L 252.691406 112.730469 C 253.273438 112.730469 253.84375 112.792969 254.410156 112.914062 C 254.976562 113.039062 255.519531 113.21875 256.046875 113.457031 C 256.574219 113.695312 257.070312 113.988281 257.535156 114.335938 C 257.996094 114.679688 258.417969 115.070312 258.800781 115.503906 C 259.179688 115.941406 259.511719 116.410156 259.789062 116.914062 C 260.066406 117.421875 260.289062 117.949219 260.457031 118.503906 C 260.621094 119.058594 260.726562 119.621094 260.769531 120.195312 C 260.816406 120.773438 260.796875 121.347656 260.71875 121.917969 L 244.511719 239.121094 C 244.410156 239.871094 244.207031 240.589844 243.902344 241.28125 C 243.597656 241.972656 243.207031 242.609375 242.722656 243.1875 C 242.238281 243.769531 241.6875 244.273438 241.0625 244.699219 C 240.4375 245.125 239.765625 245.457031 239.046875 245.699219 L 190.433594 261.863281 C 189.601562 262.136719 188.75 262.273438 187.871094 262.269531 Z M 146.597656 231.957031 L 187.871094 245.664062 L 229.148438 231.925781 L 243.394531 128.898438 L 132.371094 128.898438 Z M 146.597656 231.957031 " fill-opacity="1" fill-rule="nonzero"/></g><path fill="#000000" d="M 187.871094 227.914062 C 187.078125 227.914062 186.304688 227.800781 185.542969 227.574219 L 165.289062 221.511719 C 164.582031 221.300781 163.921875 221 163.300781 220.609375 C 162.675781 220.21875 162.121094 219.753906 161.625 219.210938 C 161.128906 218.667969 160.71875 218.070312 160.386719 217.417969 C 160.054688 216.761719 159.816406 216.078125 159.671875 215.359375 L 158.863281 211.316406 C 158.761719 210.8125 158.707031 210.300781 158.707031 209.789062 C 158.703125 209.273438 158.746094 208.761719 158.84375 208.257812 C 158.9375 207.75 159.078125 207.257812 159.265625 206.777344 C 159.457031 206.300781 159.6875 205.84375 159.964844 205.410156 C 160.238281 204.972656 160.554688 204.570312 160.910156 204.195312 C 161.261719 203.820312 161.648438 203.480469 162.066406 203.179688 C 162.484375 202.878906 162.929688 202.621094 163.394531 202.402344 C 163.863281 202.1875 164.347656 202.015625 164.847656 201.890625 C 165.347656 201.765625 165.859375 201.691406 166.371094 201.664062 C 166.886719 201.636719 167.402344 201.65625 167.910156 201.726562 C 168.421875 201.796875 168.921875 201.914062 169.410156 202.082031 C 169.898438 202.246094 170.367188 202.457031 170.816406 202.710938 C 171.265625 202.964844 171.683594 203.261719 172.078125 203.59375 C 172.46875 203.929688 172.824219 204.296875 173.148438 204.699219 C 173.46875 205.105469 173.75 205.53125 173.988281 205.988281 C 174.226562 206.445312 174.421875 206.917969 174.570312 207.414062 L 187.871094 211.394531 L 200.835938 207.511719 L 202.839844 193.5625 L 179.769531 193.5625 C 178.945312 193.566406 178.140625 193.445312 177.355469 193.203125 C 176.566406 192.960938 175.832031 192.605469 175.15625 192.140625 C 174.476562 191.671875 173.882812 191.117188 173.371094 190.472656 C 172.863281 189.824219 172.464844 189.117188 172.171875 188.347656 C 171.878906 187.582031 171.707031 186.785156 171.65625 185.964844 C 171.609375 185.144531 171.683594 184.335938 171.878906 183.539062 C 172.078125 182.738281 172.390625 181.988281 172.820312 181.285156 C 173.246094 180.582031 173.769531 179.960938 174.386719 179.417969 L 194.921875 161.230469 L 159.515625 161.230469 C 158.980469 161.230469 158.457031 161.179688 157.933594 161.074219 C 157.410156 160.972656 156.90625 160.816406 156.414062 160.613281 C 155.921875 160.410156 155.457031 160.164062 155.011719 159.867188 C 154.570312 159.574219 154.160156 159.238281 153.785156 158.863281 C 153.410156 158.488281 153.074219 158.078125 152.777344 157.636719 C 152.480469 157.195312 152.230469 156.730469 152.027344 156.242188 C 151.824219 155.75 151.671875 155.246094 151.566406 154.722656 C 151.464844 154.203125 151.410156 153.679688 151.410156 153.148438 C 151.410156 152.617188 151.464844 152.089844 151.566406 151.570312 C 151.671875 151.050781 151.824219 150.542969 152.027344 150.054688 C 152.230469 149.5625 152.480469 149.097656 152.777344 148.65625 C 153.074219 148.214844 153.410156 147.808594 153.785156 147.429688 C 154.160156 147.054688 154.570312 146.722656 155.011719 146.425781 C 155.457031 146.132812 155.921875 145.882812 156.414062 145.679688 C 156.90625 145.476562 157.410156 145.324219 157.933594 145.21875 C 158.457031 145.117188 158.980469 145.0625 159.515625 145.0625 L 216.230469 145.0625 C 217.054688 145.0625 217.859375 145.183594 218.648438 145.425781 C 219.4375 145.667969 220.167969 146.019531 220.847656 146.488281 C 221.527344 146.953125 222.121094 147.507812 222.628906 148.15625 C 223.136719 148.800781 223.539062 149.507812 223.832031 150.277344 C 224.125 151.046875 224.292969 151.839844 224.34375 152.660156 C 224.394531 153.480469 224.320312 154.289062 224.121094 155.089844 C 223.925781 155.886719 223.609375 156.636719 223.183594 157.339844 C 222.757812 158.042969 222.234375 158.664062 221.617188 159.210938 L 201.082031 177.394531 L 212.179688 177.394531 C 212.761719 177.394531 213.335938 177.457031 213.902344 177.582031 C 214.46875 177.703125 215.015625 177.886719 215.546875 178.125 C 216.074219 178.367188 216.570312 178.660156 217.035156 179.007812 C 217.5 179.355469 217.921875 179.746094 218.300781 180.183594 C 218.683594 180.621094 219.011719 181.09375 219.289062 181.601562 C 219.570312 182.109375 219.789062 182.640625 219.953125 183.195312 C 220.117188 183.753906 220.21875 184.320312 220.261719 184.898438 C 220.304688 185.472656 220.285156 186.050781 220.203125 186.621094 L 216.152344 214.914062 C 216.042969 215.675781 215.828125 216.410156 215.507812 217.113281 C 215.1875 217.816406 214.777344 218.457031 214.273438 219.042969 C 213.765625 219.628906 213.191406 220.128906 212.542969 220.550781 C 211.894531 220.96875 211.199219 221.292969 210.457031 221.511719 L 190.203125 227.574219 C 189.441406 227.800781 188.667969 227.914062 187.871094 227.914062 Z M 187.871094 227.914062 " fill-opacity="1" fill-rule="nonzero"/></svg>